<svg width="69" height="94" viewBox="0 0 69 94" fill="none" xmlns="http://www.w3.org/2000/svg">
<g clip-path="url(#clip0_129_2093)">
<path d="M67.38 36.75H54.27C53.63 36.75 53.11 37.27 53.11 37.91V51.02C53.11 51.66 53.63 52.18 54.27 52.18H67.38C68.02 52.18 68.54 51.66 68.54 51.02V37.92C68.54 37.28 68.02 36.75 67.38 36.75ZM66.22 49.86H55.43V39.08H66.21V49.86H66.22ZM14.27 36.75H1.16C0.52 36.75 0 37.27 0 37.91V51.02C0 51.66 0.52 52.18 1.16 52.18H14.27C14.91 52.18 15.43 51.66 15.43 51.02V37.92C15.43 37.28 14.91 36.75 14.27 36.75ZM13.11 49.86H2.32V39.08H13.1V49.86H13.11ZM50.05 70.48L49.32 69.75C48.87 69.3 48.13 69.3 47.68 69.75C47.23 70.2 47.23 70.94 47.68 71.39L50.4 74.11C50.63 74.34 50.92 74.45 51.22 74.45C51.52 74.45 51.81 74.34 52.04 74.11L54.76 71.39C55.21 70.94 55.21 70.2 54.76 69.75C54.31 69.3 53.57 69.3 53.12 69.75L52.39 70.48V65.39C52.39 64.75 51.87 64.23 51.23 64.23H35.43V54.97L45.11 45.29C45.56 44.84 45.56 44.1 45.11 43.65L35.43 33.97V23.98H45.1C45.74 23.98 46.26 23.46 46.26 22.82V13.15H59.65V30.59L58.92 29.86C58.47 29.41 57.73 29.41 57.28 29.86C56.83 30.31 56.83 31.05 57.28 31.5L60 34.22C60.23 34.45 60.52 34.56 60.82 34.56C61.12 34.56 61.41 34.45 61.64 34.22L64.36 31.5C64.81 31.05 64.81 30.31 64.36 29.86C63.91 29.41 63.17 29.41 62.72 29.86L61.99 30.59V11.99C61.99 11.35 61.47 10.83 60.83 10.83H46.26V1.16C46.26 0.52 45.74 0 45.1 0H23.44C22.8 0 22.28 0.52 22.28 1.16V10.83H7.72C7.08 10.83 6.56 11.35 6.56 11.99V30.59L5.83 29.86C5.38 29.41 4.64 29.41 4.19 29.86C3.74 30.31 3.74 31.05 4.19 31.5L6.91 34.22C7.14 34.45 7.43 34.56 7.73 34.56C8.03 34.56 8.32 34.45 8.55 34.22L11.27 31.5C11.72 31.05 11.72 30.31 11.27 29.86C10.82 29.41 10.08 29.41 9.63 29.86L8.9 30.59V13.15H22.29V22.82C22.29 23.46 22.81 23.98 23.45 23.98H33.12V33.97L23.44 43.65C22.99 44.1 22.99 44.84 23.44 45.29L33.12 54.97V65.4C33.12 66.04 33.64 66.56 34.28 66.56H50.06V70.48H50.05ZM24.6 2.32H43.93V21.65H24.6V2.32ZM34.27 36.1L42.64 44.47L34.27 52.84L25.9 44.47L34.27 36.1ZM51.22 75.71C46.36 75.71 42.41 79.66 42.41 84.52C42.41 89.38 46.36 93.33 51.22 93.33C56.08 93.33 60.03 89.38 60.03 84.52C60.03 79.67 56.08 75.71 51.22 75.71ZM51.22 91.02C47.64 91.02 44.73 88.11 44.73 84.53C44.73 80.95 47.64 78.04 51.22 78.04C54.8 78.04 57.71 80.95 57.71 84.53C57.71 88.11 54.8 91.02 51.22 91.02Z" fill="#6C0280"/>
</g>
<defs>
<clipPath id="clip0_129_2093">
<rect width="68.54" height="93.33" fill="white"/>
</clipPath>
</defs>
</svg>
