<svg width="71" height="96" viewBox="0 0 71 96" fill="none" xmlns="http://www.w3.org/2000/svg">
<g clip-path="url(#clip0_221_324)">
<path d="M69.7984 37.8014H56.2178C55.5549 37.8014 55.0162 38.3362 55.0162 38.9945V52.4796C55.0162 53.1379 55.5549 53.6728 56.2178 53.6728H69.7984C70.4613 53.6728 71 53.1379 71 52.4796V39.0048C71 38.3465 70.4613 37.8014 69.7984 37.8014ZM68.5967 51.2864H57.4195V40.198H68.5864V51.2864H68.5967ZM14.7822 37.8014H1.20163C0.538664 37.8014 0 38.3362 0 38.9945V52.4796C0 53.1379 0.538664 53.6728 1.20163 53.6728H14.7822C15.4451 53.6728 15.9838 53.1379 15.9838 52.4796V39.0048C15.9838 38.3465 15.4451 37.8014 14.7822 37.8014ZM13.5805 51.2864H2.40327V40.198H13.5702V51.2864H13.5805ZM51.8464 72.4963L51.0902 71.7454C50.624 71.2825 49.8575 71.2825 49.3913 71.7454C48.9252 72.2083 48.9252 72.9695 49.3913 73.4323L52.2089 76.2302C52.4472 76.4667 52.7476 76.5799 53.0584 76.5799C53.3691 76.5799 53.6695 76.4667 53.9078 76.2302L56.7254 73.4323C57.1916 72.9695 57.1916 72.2083 56.7254 71.7454C56.2593 71.2825 55.4927 71.2825 55.0266 71.7454L54.2704 72.4963V67.2607C54.2704 66.6024 53.7317 66.0675 53.0687 66.0675H36.7016V56.5426L46.7291 46.5857C47.1952 46.1228 47.1952 45.3616 46.7291 44.8987L36.7016 34.9418V24.666H46.7187C47.3817 24.666 47.9203 24.1311 47.9203 23.4728V13.5262H61.7909V31.4651L61.0347 30.7142C60.5686 30.2514 59.802 30.2514 59.3359 30.7142C58.8697 31.1771 58.8697 31.9383 59.3359 32.4012L62.1535 35.199C62.3917 35.4356 62.6921 35.5487 63.0029 35.5487C63.3137 35.5487 63.6141 35.4356 63.8523 35.199L66.67 32.4012C67.1361 31.9383 67.1361 31.1771 66.67 30.7142C66.2038 30.2514 65.4373 30.2514 64.9711 30.7142L64.2149 31.4651V12.333C64.2149 11.6747 63.6762 11.1398 63.0133 11.1398H47.9203V1.19319C47.9203 0.534876 47.3817 0 46.7187 0H24.2813C23.6183 0 23.0797 0.534876 23.0797 1.19319V11.1398H7.99708C7.33411 11.1398 6.79545 11.6747 6.79545 12.333V31.4651L6.03925 30.7142C5.5731 30.2514 4.80654 30.2514 4.34039 30.7142C3.87423 31.1771 3.87423 31.9383 4.34039 32.4012L7.15801 35.199C7.39626 35.4356 7.69667 35.5487 8.00744 35.5487C8.31821 35.5487 8.61862 35.4356 8.85687 35.199L11.6745 32.4012C12.1406 31.9383 12.1406 31.1771 11.6745 30.7142C11.2083 30.2514 10.4418 30.2514 9.97563 30.7142L9.21943 31.4651V13.5262H23.09V23.4728C23.09 24.1311 23.6287 24.666 24.2917 24.666H34.3087V34.9418L24.2813 44.8987C23.8151 45.3616 23.8151 46.1228 24.2813 46.5857L34.3087 56.5426V67.271C34.3087 67.9293 34.8474 68.4642 35.5104 68.4642H51.8567V72.4963H51.8464ZM25.4829 2.38637H45.5067V22.2694H25.4829V2.38637ZM35.5 37.1328L44.1704 45.7422L35.5 54.3517L26.8296 45.7422L35.5 37.1328ZM53.0584 77.8759C48.0239 77.8759 43.9322 81.9389 43.9322 86.938C43.9322 91.937 48.0239 96 53.0584 96C58.0928 96 62.1846 91.937 62.1846 86.938C62.1846 81.9492 58.0928 77.8759 53.0584 77.8759ZM53.0584 93.6239C49.3499 93.6239 46.3354 90.6307 46.3354 86.9483C46.3354 83.2658 49.3499 80.2726 53.0584 80.2726C56.7669 80.2726 59.7813 83.2658 59.7813 86.9483C59.7813 90.6307 56.7669 93.6239 53.0584 93.6239Z" fill="black"/>
</g>
<defs>
<clipPath id="clip0_221_324">
<rect width="71" height="96" fill="white"/>
</clipPath>
</defs>
</svg>
