<svg width="60" height="60" viewBox="0 0 60 60" fill="none" xmlns="http://www.w3.org/2000/svg">
<g clip-path="url(#clip0_129_2059)">
<path fill-rule="evenodd" clip-rule="evenodd" d="M24.0334 58.1488V51.0864C24.0334 50.5776 24.4467 50.1652 24.9568 50.1652C25.0799 50.1652 25.1942 50.1915 25.2997 50.2354C25.502 50.3144 25.713 50.3758 25.9241 50.4197C26.1351 50.4635 26.355 50.4811 26.5836 50.4811C27.5245 50.4811 28.3688 50.1038 28.9843 49.4897C29.5999 48.8756 29.978 48.0333 29.978 47.0946C29.978 46.1559 29.5999 45.3136 28.9843 44.6995C28.3688 44.0854 27.5245 43.7081 26.5836 43.7081C26.355 43.7081 26.1351 43.7257 25.9241 43.7696C25.713 43.8134 25.502 43.8748 25.2997 43.9538C24.8249 44.1468 24.2884 43.9187 24.095 43.445C24.051 43.3309 24.0246 43.2168 24.0246 43.094V36.0316H18.1416C18.1768 36.2597 18.1855 36.4966 18.1855 36.7334C18.1855 38.181 17.5964 39.4882 16.6466 40.4357C15.6969 41.3832 14.3866 41.9711 12.9357 41.9711C11.4847 41.9711 10.1744 41.3832 9.22468 40.4357C8.27495 39.4882 7.68577 38.181 7.68577 36.7334C7.68577 36.4966 7.70336 36.2597 7.72974 36.0316H1.84669V55.9994C1.84669 56.596 2.09292 57.1312 2.47985 57.526C2.87557 57.9207 3.41199 58.1576 4.00997 58.1576H24.0334V58.1488ZM49.6145 58.8068C48.357 60.2544 47.0028 59.9825 45.8948 59.9825H4.01876C2.91074 59.9825 1.90825 59.535 1.17837 58.8068C0.448483 58.0787 0 57.0785 0 55.9731V14.2126C0 13.1072 0.448483 12.107 1.17837 11.3789C1.90825 10.6507 2.91074 10.2032 4.01876 10.2032H24.9568C25.4668 10.2032 25.8801 10.6156 25.8801 11.1244V19.0466C25.8889 19.187 25.8713 19.3274 25.8186 19.4678C25.6251 19.9415 25.0887 20.1696 24.6138 19.9766C24.4115 19.8976 24.2005 19.8275 23.9894 19.7924C23.7784 19.7485 23.5586 19.731 23.3299 19.731C22.389 19.731 21.5448 20.1082 20.9292 20.7223C20.3136 21.3365 19.9355 22.1787 19.9355 23.1174C19.9355 24.0561 20.3136 24.8984 20.9292 25.5125C21.5448 26.1266 22.389 26.5039 23.3299 26.5039C23.5586 26.5039 23.7784 26.4863 23.9894 26.4425C24.1917 26.4074 24.3852 26.346 24.5698 26.2758C24.6842 26.2231 24.8161 26.188 24.9568 26.188C25.4668 26.188 25.8801 26.6004 25.8801 27.1092V34.1717H31.7632C31.728 33.9436 31.7192 33.7067 31.7192 33.4698C31.7192 32.0222 32.3084 30.715 33.2581 29.7675C34.2078 28.82 35.5181 28.2322 36.9691 28.2322C38.4201 28.2322 39.7303 28.82 40.68 29.7675C41.6298 30.715 42.219 32.0222 42.219 33.4698C42.219 33.7067 42.2014 33.9436 42.1662 34.1717H48.9726C49.4826 34.1717 49.8959 34.584 49.8959 35.0928V37.5932M59.7977 33.4523L49.8959 37.5932L49.9839 37.5055M48.058 54.6483V55.9819C48.058 56.5784 47.8118 57.1136 47.4249 57.5084C47.038 57.9032 46.4927 58.1401 45.8948 58.1401H25.8801V52.2708C26.1087 52.3059 26.3462 52.3147 26.5836 52.3147C28.0346 52.3147 29.3449 51.7269 30.2946 50.7794C31.2443 49.8318 31.8335 48.5246 31.8335 47.0771C31.8335 45.6295 31.2443 44.3223 30.2946 43.3748C29.3449 42.4273 28.0346 41.8394 26.5836 41.8394C26.3462 41.8394 26.1175 41.857 25.8801 41.8833V36.014H32.9591C33.0734 36.014 33.1965 35.9877 33.3109 35.9439C33.7857 35.7508 34.0144 35.2157 33.8209 34.7419C33.7418 34.5401 33.6714 34.3296 33.6362 34.119C33.5923 33.9085 33.5747 33.6891 33.5747 33.461C33.5747 32.5223 33.9528 31.6801 34.5684 31.0659C35.1839 30.4518 36.0281 30.0746 36.9691 30.0746C37.91 30.0746 38.7542 30.4518 39.3698 31.0659C39.9853 31.6801 40.3635 32.5223 40.3635 33.461C40.3635 33.6891 40.3459 33.9085 40.3019 34.119C40.258 34.3296 40.1964 34.5401 40.1172 34.7419C40.0733 34.8472 40.0469 34.97 40.0469 35.0928C40.0469 35.6017 40.4602 36.014 40.9702 36.014H48.0492V39.9357M58.1445 23.9772V4.0269C58.1445 3.43033 57.8983 2.89516 57.5114 2.50037C57.1156 2.10557 56.5792 1.86869 55.9812 1.86869H35.9666V8.93113C35.9666 9.43998 35.5533 9.85232 35.0432 9.85232C34.9201 9.85232 34.8058 9.826 34.7003 9.78213C34.498 9.70317 34.287 9.64176 34.0759 9.59789C33.8649 9.55403 33.645 9.53648 33.4164 9.53648C32.4754 9.53648 31.6312 9.91373 31.0157 10.5279C30.4001 11.142 30.022 11.9842 30.022 12.9229C30.022 13.8617 30.4001 14.7039 31.0157 15.318C31.6312 15.9322 32.4754 16.3094 33.4164 16.3094C33.645 16.3094 33.8649 16.2919 34.0759 16.248C34.287 16.2041 34.498 16.1427 34.7003 16.0638C35.1751 15.8707 35.7116 16.0988 35.905 16.5726C35.9578 16.713 35.9842 16.8533 35.9666 16.9937V23.9947H41.8584C41.8232 23.7666 41.8144 23.5298 41.8144 23.2929C41.8144 21.8453 42.4036 20.5381 43.3534 19.5906C44.3031 18.6431 45.6134 18.0553 47.0643 18.0553C48.5153 18.0553 49.8256 18.6431 50.7753 19.5906C51.725 20.5381 52.3142 21.8453 52.3142 23.2929C52.3142 23.5298 52.2966 23.7666 52.2703 23.9947H58.1533V23.9772H58.1445ZM60 4.00936C60 2.90393 59.5515 1.90379 58.8216 1.17561C58.0917 0.447434 57.0893 0 55.9812 0H35.0432C34.5332 0 34.1199 0.412341 34.1199 0.921187V7.71165C33.8913 7.67656 33.6538 7.66779 33.4164 7.66779C31.9654 7.66779 30.6551 8.25559 29.7054 9.2031C28.7557 10.1506 28.1665 11.4578 28.1665 12.9054C28.1665 14.353 28.7557 15.6602 29.7054 16.6077C30.6551 17.5552 31.9654 18.143 33.4164 18.143C33.6538 18.143 33.8913 18.1255 34.1199 18.0991V24.8984C34.1199 25.4072 34.5332 25.8196 35.0432 25.8196H43.0544C43.5644 25.8196 43.9777 25.4072 43.9777 24.8984C43.9777 24.7756 43.9513 24.6615 43.9074 24.5562C43.8282 24.3544 43.7579 24.1439 43.7227 23.9333C43.6787 23.7228 43.6611 23.5034 43.6611 23.2753C43.6611 22.3366 44.0393 21.4944 44.6548 20.8802C45.2704 20.2661 46.1146 19.8889 47.0555 19.8889C47.9965 19.8889 48.8407 20.2661 49.4563 20.8802C50.0718 21.4944 50.4499 22.3366 50.4499 23.2753C50.4499 23.5034 50.4324 23.7228 50.3884 23.9333C50.3444 24.1439 50.2829 24.3544 50.2037 24.5562C50.0103 25.03 50.2389 25.5651 50.7138 25.7582C50.8545 25.8108 50.9952 25.8371 51.1359 25.8196H59.0767C59.5867 25.8196 60 25.4072 60 24.8984V4.0269V4.00936ZM24.0334 34.1804H16.9544C16.4444 34.1804 16.0311 34.5928 16.0311 35.1016C16.0311 35.242 16.0575 35.3736 16.119 35.4876C16.1894 35.6807 16.2509 35.8737 16.2861 36.0667C16.3301 36.2772 16.3476 36.4966 16.3476 36.7247C16.3476 37.6634 15.9695 38.5056 15.3539 39.1198C14.7384 39.7339 13.8942 40.1111 12.9532 40.1111C12.0123 40.1111 11.1681 39.7339 10.5525 39.1198C9.93698 38.5056 9.55884 37.6634 9.55884 36.7247C9.55884 36.4966 9.57643 36.2772 9.6204 36.0667C9.66437 35.8561 9.72593 35.6456 9.80507 35.4438C9.99853 34.97 9.7699 34.4349 9.29503 34.2418C9.15433 34.1892 9.01363 34.1629 8.87293 34.1804H1.86428V14.2126C1.86428 13.616 2.11051 13.0809 2.49744 12.6861C2.89316 12.2913 3.42958 12.0544 4.02755 12.0544H24.0422V17.9237C23.8136 17.8886 23.5761 17.871 23.3387 17.871C21.8877 17.871 20.5775 18.4588 19.6277 19.4063C18.678 20.3539 18.0888 21.6611 18.0888 23.1086C18.0888 24.5562 18.678 25.8634 19.6277 26.8109C20.5775 27.7584 21.8877 28.3463 23.3387 28.3463C23.5761 28.3463 23.8048 28.3287 24.0422 28.3024V34.1717H24.0334V34.1804Z" fill="#6C0280"/>
</g>
<defs>
<clipPath id="clip0_129_2059">
<rect width="60" height="60" fill="white"/>
</clipPath>
</defs>
</svg>
