<svg width="96" height="96" viewBox="0 0 96 96" fill="none" xmlns="http://www.w3.org/2000/svg">
<g clip-path="url(#clip0_221_325)">
<path fill-rule="evenodd" clip-rule="evenodd" d="M38.4535 93.0382V81.7383C38.4535 80.9241 39.1148 80.2644 39.9308 80.2644C40.1278 80.2644 40.3107 80.3065 40.4796 80.3767C40.8032 80.503 41.1408 80.6013 41.4785 80.6714C41.8162 80.7416 42.168 80.7697 42.5338 80.7697C44.0393 80.7697 45.39 80.1661 46.3749 79.1835C47.3598 78.2009 47.9648 76.8533 47.9648 75.3514C47.9648 73.8494 47.3598 72.5018 46.3749 71.5192C45.39 70.5366 44.0393 69.933 42.5338 69.933C42.168 69.933 41.8162 69.9611 41.4785 70.0313C41.1408 70.1015 40.8032 70.1997 40.4796 70.3261C39.7198 70.6349 38.8615 70.2699 38.552 69.5119C38.4816 69.3294 38.4394 69.1469 38.4394 68.9504V57.6505H29.0265C29.0828 58.0155 29.0969 58.3945 29.0969 58.7735C29.0969 61.0896 28.1542 63.1812 26.6346 64.6972C25.1151 66.2132 23.0186 67.1537 20.6971 67.1537C18.3755 67.1537 16.2791 66.2132 14.7595 64.6972C13.2399 63.1812 12.2972 61.0896 12.2972 58.7735C12.2972 58.3945 12.3254 58.0155 12.3676 57.6505H2.95471V89.5991C2.95471 90.5536 3.34867 91.4099 3.96776 92.0415C4.60091 92.6732 5.45918 93.0522 6.41595 93.0522H38.4535V93.0382ZM79.3833 94.0909C77.3712 96.4071 75.2045 95.9719 73.4316 95.9719H6.43002C4.65719 95.9719 3.0532 95.256 1.88539 94.0909C0.717573 92.9259 0 91.3256 0 89.5569V22.7402C0 20.9715 0.717573 19.3713 1.88539 18.2062C3.0532 17.0411 4.65719 16.3252 6.43002 16.3252H39.9308C40.7469 16.3252 41.4082 16.9849 41.4082 17.7991V30.4746C41.4222 30.6992 41.3941 30.9238 41.3097 31.1484C41.0001 31.9064 40.1419 32.2714 39.3821 31.9626C39.0585 31.8362 38.7208 31.7239 38.3831 31.6678C38.0454 31.5976 37.6937 31.5695 37.3279 31.5695C35.8224 31.5695 34.4716 32.1731 33.4867 33.1557C32.5018 34.1383 31.8968 35.4859 31.8968 36.9879C31.8968 38.4898 32.5018 39.8374 33.4867 40.82C34.4716 41.8026 35.8224 42.4062 37.3279 42.4062C37.6937 42.4062 38.0454 42.3781 38.3831 42.3079C38.7067 42.2518 39.0163 42.1535 39.3117 42.0412C39.4946 41.957 39.7057 41.9009 39.9308 41.9009C40.7469 41.9009 41.4082 42.5606 41.4082 43.3748V54.6747H50.821C50.7648 54.3097 50.7507 53.9307 50.7507 53.5517C50.7507 51.2356 51.6934 49.144 53.213 47.628C54.7325 46.112 56.829 45.1715 59.1505 45.1715C61.4721 45.1715 63.5685 46.112 65.0881 47.628C66.6076 49.144 67.5503 51.2356 67.5503 53.5517C67.5503 53.9307 67.5222 54.3097 67.4659 54.6747H78.3561C79.1722 54.6747 79.8335 55.3344 79.8335 56.1486V60.1491M95.6764 53.5236L79.8335 60.1491L79.9742 60.0088M76.8929 87.4373V89.571C76.8929 90.5255 76.4989 91.3818 75.8798 92.0135C75.2607 92.6451 74.3884 93.0241 73.4316 93.0241H41.4082V83.6333C41.774 83.6894 42.1539 83.7035 42.5338 83.7035C44.8553 83.7035 46.9518 82.763 48.4713 81.247C49.9909 79.731 50.9336 77.6394 50.9336 75.3233C50.9336 73.0072 49.9909 70.9156 48.4713 69.3996C46.9518 67.8836 44.8553 66.9431 42.5338 66.9431C42.1539 66.9431 41.7881 66.9712 41.4082 67.0133V57.6225H52.7346C52.9175 57.6225 53.1145 57.5803 53.2974 57.5102C54.0572 57.2013 54.423 56.3451 54.1134 55.5871C53.9868 55.2642 53.8742 54.9273 53.818 54.5904C53.7476 54.2535 53.7195 53.9026 53.7195 53.5376C53.7195 52.0357 54.3245 50.6881 55.3094 49.7055C56.2943 48.7229 57.645 48.1193 59.1505 48.1193C60.656 48.1193 62.0067 48.7229 62.9916 49.7055C63.9765 50.6881 64.5816 52.0357 64.5816 53.5376C64.5816 53.9026 64.5534 54.2535 64.4831 54.5904C64.4127 54.9273 64.3142 55.2642 64.1876 55.5871C64.1172 55.7555 64.075 55.952 64.075 56.1486C64.075 56.9627 64.7363 57.6225 65.5524 57.6225H76.8788V63.8971M93.0312 38.3635V6.44305C93.0312 5.48852 92.6373 4.63226 92.0182 4.00058C91.385 3.36891 90.5267 2.98991 89.57 2.98991H57.5465V14.2898C57.5465 15.104 56.8852 15.7637 56.0692 15.7637C55.8722 15.7637 55.6893 15.7216 55.5204 15.6514C55.1968 15.5251 54.8592 15.4268 54.5215 15.3566C54.1838 15.2864 53.832 15.2584 53.4662 15.2584C51.9607 15.2584 50.61 15.862 49.6251 16.8446C48.6402 17.8272 48.0352 19.1747 48.0352 20.6767C48.0352 22.1787 48.6402 23.5262 49.6251 24.5088C50.61 25.4914 51.9607 26.095 53.4662 26.095C53.832 26.095 54.1838 26.067 54.5215 25.9968C54.8592 25.9266 55.1968 25.8283 55.5204 25.702C56.2802 25.3932 57.1385 25.7581 57.448 26.5162C57.5325 26.7407 57.5747 26.9653 57.5465 27.1899V38.3916H66.9735C66.9172 38.0266 66.9031 37.6476 66.9031 37.2686C66.9031 34.9525 67.8458 32.8609 69.3654 31.3449C70.8849 29.8289 72.9814 28.8884 75.3029 28.8884C77.6245 28.8884 79.7209 29.8289 81.2405 31.3449C82.7601 32.8609 83.7028 34.9525 83.7028 37.2686C83.7028 37.6476 83.6746 38.0266 83.6324 38.3916H93.0453V38.3635H93.0312ZM96 6.41497C96 4.64629 95.2824 3.04606 94.1146 1.88098C92.9468 0.715894 91.3428 0 89.57 0H56.0692C55.2531 0 54.5918 0.659746 54.5918 1.4739V12.3386C54.226 12.2825 53.8461 12.2685 53.4662 12.2685C51.1447 12.2685 49.0482 13.2089 47.5286 14.725C46.0091 16.241 45.0664 18.3325 45.0664 20.6486C45.0664 22.9648 46.0091 25.0563 47.5286 26.5723C49.0482 28.0883 51.1447 29.0288 53.4662 29.0288C53.8461 29.0288 54.226 29.0007 54.5918 28.9586V39.8374C54.5918 40.6516 55.2531 41.3113 56.0692 41.3113H68.887C69.7031 41.3113 70.3644 40.6516 70.3644 39.8374C70.3644 39.6409 70.3221 39.4584 70.2518 39.29C70.1252 38.9671 70.0126 38.6302 69.9563 38.2933C69.886 37.9564 69.8578 37.6055 69.8578 37.2405C69.8578 35.7386 70.4628 34.391 71.4477 33.4084C72.4327 32.4258 73.7834 31.8222 75.2889 31.8222C76.7944 31.8222 78.1451 32.4258 79.13 33.4084C80.1149 34.391 80.7199 35.7386 80.7199 37.2405C80.7199 37.6055 80.6918 37.9564 80.6214 38.2933C80.5511 38.6302 80.4526 38.9671 80.326 39.29C80.0164 40.048 80.3822 40.9042 81.142 41.213C81.3671 41.2973 81.5923 41.3394 81.8174 41.3113H94.5226C95.3387 41.3113 96 40.6516 96 39.8374V6.44305V6.41497ZM38.4535 54.6887H27.1271C26.311 54.6887 25.6497 55.3484 25.6497 56.1626C25.6497 56.3872 25.6919 56.5977 25.7904 56.7802C25.903 57.089 26.0015 57.3979 26.0577 57.7067C26.1281 58.0436 26.1562 58.3945 26.1562 58.7595C26.1562 60.2614 25.5512 61.609 24.5663 62.5916C23.5814 63.5742 22.2307 64.1778 20.7252 64.1778C19.2197 64.1778 17.869 63.5742 16.8841 62.5916C15.8992 61.609 15.2942 60.2614 15.2942 58.7595C15.2942 58.3945 15.3223 58.0436 15.3926 57.7067C15.463 57.3698 15.5615 57.0329 15.6881 56.71C15.9977 55.952 15.6318 55.0958 14.872 54.787C14.6469 54.7027 14.4218 54.6606 14.1967 54.6887H2.98285V22.7402C2.98285 21.7856 3.37681 20.9294 3.9959 20.2977C4.62905 19.666 5.48732 19.287 6.44409 19.287H38.4675V28.6779C38.1017 28.6217 37.7218 28.5937 37.3419 28.5937C35.0204 28.5937 32.9239 29.5341 31.4044 31.0502C29.8848 32.5662 28.9421 34.6577 28.9421 36.9738C28.9421 39.29 29.8848 41.3815 31.4044 42.8975C32.9239 44.4135 35.0204 45.354 37.3419 45.354C37.7218 45.354 38.0876 45.3259 38.4675 45.2838V54.6747H38.4535V54.6887Z" fill="black"/>
</g>
<defs>
<clipPath id="clip0_221_325">
<rect width="96" height="96" fill="white"/>
</clipPath>
</defs>
</svg>
