<svg width="55" height="80" viewBox="0 0 55 80" fill="none" xmlns="http://www.w3.org/2000/svg">
<g clip-path="url(#clip0_129_2057)">
<path fill-rule="evenodd" clip-rule="evenodd" d="M41.79 55.3H13.14C12.37 55.3 11.67 55.62 11.16 56.12C10.65 56.63 10.34 57.33 10.34 58.1C10.34 58.87 10.66 59.57 11.16 60.08C11.67 60.59 12.37 60.9 13.14 60.9H41.78C42.55 60.9 43.25 60.58 43.76 60.08C44.27 59.57 44.58 58.87 44.58 58.1C44.58 57.33 44.26 56.63 43.76 56.12C43.26 55.61 42.55 55.3 41.78 55.3H41.79ZM13.14 52.9C12.72 52.9 12.32 52.95 11.93 53.04C11.25 46.54 9.03 43.53 6.86 40.58C4.61 37.53 2.41 34.54 2.41 27.03C2.41 20.23 5.17 14.07 9.63 9.6C14.09 5.14 20.25 2.38 27.06 2.38C33.87 2.38 40.02 5.14 44.49 9.6C48.95 14.06 51.71 20.22 51.71 27.03C51.71 34.54 49.51 37.52 47.26 40.58C45.1 43.51 42.89 46.5 42.2 52.91C42.07 52.91 41.94 52.89 41.81 52.89H13.14V52.9ZM13.14 63.31C11.8 63.31 10.95 64.02 10.59 64.92C10.44 65.29 10.37 65.7 10.37 66.12C10.37 66.54 10.44 66.94 10.59 67.32C10.95 68.23 11.8 68.93 13.14 68.93H41.78C43.12 68.93 43.97 68.22 44.33 67.32C44.48 66.95 44.55 66.54 44.55 66.12C44.55 65.7 44.48 65.3 44.33 64.92C43.97 64.01 43.12 63.31 41.78 63.31H13.14ZM37.29 71.32H16.81V72.62C16.81 73.76 17.26 74.8 17.98 75.55C18.69 76.29 19.67 76.75 20.74 76.75H33.36C34.43 76.75 35.41 76.29 36.12 75.55C36.84 74.8 37.29 73.76 37.29 72.62V71.32ZM45.15 62.06C45.78 62.59 46.25 63.27 46.55 64.03C46.82 64.69 46.95 65.41 46.95 66.11C46.95 66.81 46.82 67.53 46.55 68.19C45.85 69.94 44.25 71.31 41.78 71.31H39.68V72.61C39.68 74.4 38.97 76.02 37.84 77.2C36.69 78.4 35.11 79.13 33.36 79.13H20.73C18.98 79.13 17.39 78.39 16.25 77.2C15.11 76.02 14.41 74.39 14.41 72.61V71.31H13.15C10.67 71.31 9.08 69.94 8.38 68.19C8.11 67.53 7.98 66.81 7.98 66.11C7.98 65.41 8.11 64.69 8.38 64.03C8.68 63.28 9.15 62.59 9.78 62.06C9.67 61.97 9.57 61.88 9.48 61.78C8.54 60.84 7.95 59.54 7.95 58.1C7.95 56.66 8.54 55.37 9.48 54.42C9.53 54.37 9.59 54.31 9.65 54.26C9.16 47.71 7.02 44.82 4.94 41.99C2.45 38.61 0.0199966 35.32 0.0199966 27.03C0.0199966 19.57 3.05 12.8 7.94 7.91C12.81 3.02 19.57 0 27.04 0C34.51 0 41.27 3.03 46.16 7.92C51.05 12.81 54.08 19.57 54.08 27.04C54.08 35.33 51.65 38.63 49.16 42C47.14 44.74 45.07 47.54 44.5 53.67C44.85 53.88 45.17 54.14 45.46 54.43C46.4 55.37 46.99 56.67 46.99 58.11C46.99 59.55 46.4 60.84 45.46 61.79C45.36 61.89 45.26 61.98 45.16 62.07L45.15 62.06ZM18.35 38.86L18.51 46.23L24.77 42.35L18.35 38.87V38.86ZM33.99 16.09L30.97 14.45L18.6 37.26L21.62 38.9L33.99 16.09ZM38.35 18.45L25.98 41.26L22.96 39.62L35.33 16.81L38.35 18.45ZM40.05 18.5L42.4 14.17C42.8 13.43 42.87 12.58 42.64 11.83C42.41 11.07 41.9 10.4 41.16 9.99L36.54 7.49C36.54 7.49 36.51 7.48 36.5 7.47C35.76 7.08 34.93 7.02 34.18 7.24C33.43 7.46 32.76 7.97 32.36 8.7C32.36 8.71 32.35 8.73 32.34 8.74L16.91 37.2C16.83 37.34 16.81 37.49 16.82 37.64L17.04 47.57C17.04 47.99 17.39 48.32 17.81 48.31C17.96 48.31 18.09 48.26 18.2 48.19L26.64 42.96C26.77 42.89 26.89 42.79 26.96 42.65L40.05 18.51V18.5ZM31.69 13.11L33.68 9.45C33.89 9.07 34.23 8.81 34.61 8.7C34.99 8.59 35.42 8.62 35.8 8.82L40.44 11.33C40.82 11.54 41.08 11.88 41.19 12.26C41.3 12.64 41.27 13.07 41.07 13.45L39.08 17.11L31.69 13.11Z" fill="#6C0280"/>
</g>
<defs>
<clipPath id="clip0_129_2057">
<rect width="54.07" height="79.14" fill="white"/>
</clipPath>
</defs>
</svg>
