<svg width="66" height="96" viewBox="0 0 66 96" fill="none" xmlns="http://www.w3.org/2000/svg">
<g clip-path="url(#clip0_221_328)">
<path fill-rule="evenodd" clip-rule="evenodd" d="M50.148 66.36H15.768C14.844 66.36 14.004 66.744 13.392 67.344C12.78 67.956 12.408 68.796 12.408 69.72C12.408 70.644 12.792 71.484 13.392 72.096C14.004 72.708 14.844 73.08 15.768 73.08H50.136C51.06 73.08 51.9 72.696 52.512 72.096C53.124 71.484 53.496 70.644 53.496 69.72C53.496 68.796 53.112 67.956 52.512 67.344C51.912 66.732 51.06 66.36 50.136 66.36H50.148ZM15.768 63.48C15.264 63.48 14.784 63.54 14.316 63.648C13.5 55.848 10.836 52.236 8.232 48.696C5.532 45.036 2.892 41.448 2.892 32.436C2.892 24.276 6.204 16.884 11.556 11.52C16.908 6.168 24.3 2.856 32.472 2.856C40.644 2.856 48.024 6.168 53.388 11.52C58.74 16.872 62.052 24.264 62.052 32.436C62.052 41.448 59.412 45.024 56.712 48.696C54.12 52.212 51.468 55.8 50.64 63.492C50.484 63.492 50.328 63.468 50.172 63.468H15.768V63.48ZM15.768 75.972C14.16 75.972 13.14 76.824 12.708 77.904C12.528 78.348 12.444 78.84 12.444 79.344C12.444 79.848 12.528 80.328 12.708 80.784C13.14 81.876 14.16 82.716 15.768 82.716H50.136C51.744 82.716 52.764 81.864 53.196 80.784C53.376 80.34 53.46 79.848 53.46 79.344C53.46 78.84 53.376 78.36 53.196 77.904C52.764 76.812 51.744 75.972 50.136 75.972H15.768ZM44.748 85.584H20.172V87.144C20.172 88.512 20.712 89.76 21.576 90.66C22.428 91.548 23.604 92.1 24.888 92.1H40.032C41.316 92.1 42.492 91.548 43.344 90.66C44.208 89.76 44.748 88.512 44.748 87.144V85.584ZM54.18 74.472C54.936 75.108 55.5 75.924 55.86 76.836C56.184 77.628 56.34 78.492 56.34 79.332C56.34 80.172 56.184 81.036 55.86 81.828C55.02 83.928 53.1 85.572 50.136 85.572H47.616V87.132C47.616 89.28 46.764 91.224 45.408 92.64C44.028 94.08 42.132 94.956 40.032 94.956H24.876C22.776 94.956 20.868 94.068 19.5 92.64C18.132 91.224 17.292 89.268 17.292 87.132V85.572H15.78C12.804 85.572 10.896 83.928 10.056 81.828C9.732 81.036 9.576 80.172 9.576 79.332C9.576 78.492 9.732 77.628 10.056 76.836C10.416 75.936 10.98 75.108 11.736 74.472C11.604 74.364 11.484 74.256 11.376 74.136C10.248 73.008 9.54 71.448 9.54 69.72C9.54 67.992 10.248 66.444 11.376 65.304C11.436 65.244 11.508 65.172 11.58 65.112C10.992 57.252 8.424 53.784 5.928 50.388C2.94 46.332 0.0240021 42.384 0.0240021 32.436C0.0240021 23.484 3.66 15.36 9.528 9.492C15.372 3.624 23.484 0 32.448 0C41.412 0 49.524 3.636 55.392 9.504C61.26 15.372 64.896 23.484 64.896 32.448C64.896 42.396 61.98 46.356 58.992 50.4C56.568 53.688 54.084 57.048 53.4 64.404C53.82 64.656 54.204 64.968 54.552 65.316C55.68 66.444 56.388 68.004 56.388 69.732C56.388 71.46 55.68 73.008 54.552 74.148C54.432 74.268 54.312 74.376 54.192 74.484L54.18 74.472ZM22.02 46.632L22.212 55.476L29.724 50.82L22.02 46.644V46.632ZM40.788 19.308L37.164 17.34L22.32 44.712L25.944 46.68L40.788 19.308ZM46.02 22.14L31.176 49.512L27.552 47.544L42.396 20.172L46.02 22.14ZM48.06 22.2L50.88 17.004C51.36 16.116 51.444 15.096 51.168 14.196C50.892 13.284 50.28 12.48 49.392 11.988L43.848 8.988C43.848 8.988 43.812 8.976 43.8 8.964C42.912 8.496 41.916 8.424 41.016 8.688C40.116 8.952 39.312 9.564 38.832 10.44C38.832 10.452 38.82 10.476 38.808 10.488L20.292 44.64C20.196 44.808 20.172 44.988 20.184 45.168L20.448 57.084C20.448 57.588 20.868 57.984 21.372 57.972C21.552 57.972 21.708 57.912 21.84 57.828L31.968 51.552C32.124 51.468 32.268 51.348 32.352 51.18L48.06 22.212V22.2ZM38.028 15.732L40.416 11.34C40.668 10.884 41.076 10.572 41.532 10.44C41.988 10.308 42.504 10.344 42.96 10.584L48.528 13.596C48.984 13.848 49.296 14.256 49.428 14.712C49.56 15.168 49.524 15.684 49.284 16.14L46.896 20.532L38.028 15.732Z" fill="black"/>
</g>
<defs>
<clipPath id="clip0_221_328">
<rect width="64.884" height="94.968" fill="white"/>
</clipPath>
</defs>
</svg>
