<svg width="96" height="96" viewBox="0 0 96 96" fill="none" xmlns="http://www.w3.org/2000/svg">
<g clip-path="url(#clip0_303_325)">
<path d="M30.0893 46.6678H12.3161C11.6363 43.5636 8.72546 41.4721 5.56028 41.8137C2.39926 42.1554 0.00135564 44.8219 0.00135564 48.0011C0.00135564 51.1802 2.39926 53.8468 5.56028 54.1885C8.72546 54.5301 11.6364 52.4385 12.3161 49.3344H30.0893C30.3478 53.0051 31.6447 56.5259 33.8258 59.4883C36.0111 62.4507 38.9927 64.7299 42.4249 66.0632V70.1339H25.1428C24.4589 67.0298 21.548 64.9382 18.3829 65.2798C15.2177 65.6215 12.8239 68.2881 12.8239 71.4672C12.8239 74.6463 15.2177 77.3171 18.3829 77.6587C21.548 78.0004 24.4589 75.9088 25.1428 72.8005H43.7594C44.1139 72.8005 44.4517 72.663 44.7019 72.4089C44.9521 72.1589 45.0939 71.8214 45.0939 71.4672V66.8798C50.8488 68.1965 56.8918 66.8256 61.508 63.1507C66.1245 59.4716 68.8144 53.8967 68.8144 47.9969C68.8144 42.0971 66.1246 36.5177 61.508 32.8431C56.8916 29.1682 50.8488 27.7932 45.0939 29.1099V24.3517C45.0939 23.9975 44.9521 23.66 44.7019 23.4101C44.4517 23.1601 44.1139 23.0184 43.7594 23.0184H25.1428C24.4589 19.9143 21.548 17.8185 18.3829 18.1602C15.2177 18.506 12.8239 21.1726 12.8239 24.3517C12.8239 27.5308 15.2177 30.1974 18.3829 30.5432C21.548 30.8849 24.4589 28.7891 25.1428 25.685H42.4249V29.9391C38.9928 31.2724 36.0111 33.5515 33.8258 36.514C31.6447 39.4764 30.3478 42.997 30.0893 46.6678ZM19.0547 75.0298C17.6159 75.0298 16.3148 74.1631 15.7644 72.8298C15.2139 71.5007 15.5183 69.9716 16.5359 68.9508C17.5534 67.9341 19.0839 67.63 20.4184 68.18C21.7487 68.7299 22.6161 70.0258 22.6161 71.4674C22.6161 73.434 21.023 75.0256 19.0547 75.0298ZM19.0547 27.9099C17.6159 27.9099 16.3148 27.0433 15.7644 25.7141C15.2139 24.385 15.5183 22.8517 16.5359 21.8351C17.5534 20.8184 19.0881 20.5101 20.4184 21.0642C21.7487 21.6142 22.6161 22.9101 22.6161 24.3516C22.6161 26.314 21.023 27.9099 19.0547 27.9099ZM6.23083 51.5594C4.79205 51.5594 3.49098 50.6927 2.94053 49.3636C2.39008 48.0345 2.69448 46.5012 3.71203 45.4845C4.72957 44.4637 6.26421 44.1596 7.59453 44.7137C8.92485 45.2637 9.79226 46.5595 9.79226 48.0011C9.79226 49.9635 8.19914 51.5552 6.23083 51.5594ZM66.1577 48.0012C66.1577 53.3386 63.6055 58.3551 59.2893 61.5006C54.973 64.6461 49.4099 65.5422 44.326 63.9089C44.2259 63.863 44.1216 63.8255 44.0132 63.8047C40.1182 62.4714 36.8529 59.7465 34.8428 56.159C32.8286 52.5674 32.2156 48.3634 33.1163 44.3513C34.0129 40.3347 36.365 36.7932 39.7137 34.4015C43.0624 32.0099 47.1785 30.9391 51.2735 31.3891C55.3645 31.8433 59.147 33.7891 61.891 36.8515C64.6392 39.9181 66.1577 43.889 66.1577 48.0012ZM49.435 60.9929C54.6937 60.9929 59.4353 57.8262 61.4454 52.9723C63.4596 48.1182 62.3462 42.5308 58.6263 38.8147C54.9106 35.0981 49.3182 33.9899 44.4562 35.9982C39.5978 38.0106 36.4327 42.748 36.4327 48.0021C36.441 55.1729 42.2585 60.9853 49.4359 60.9938L49.435 60.9929ZM49.435 37.6773C53.6137 37.6773 57.3794 40.1939 58.9807 44.0521C60.5821 47.9104 59.698 52.3477 56.7413 55.302C53.7845 58.2563 49.339 59.1395 45.4814 57.5395C41.6198 55.9437 39.1009 52.1772 39.1009 48.0022C39.1051 42.3023 43.7301 37.6856 49.435 37.6773ZM94.8534 40.2938L85.4578 38.9689V38.9647C84.5778 35.4356 83.1767 32.0565 81.3042 28.94L87.0008 21.3651C87.4011 20.8359 87.351 20.0901 86.8798 19.6193L77.8345 10.582V10.5861C77.3632 10.1153 76.6209 10.0612 76.0872 10.4611L68.5139 16.1568C65.3945 14.2819 62.0125 12.8861 58.4803 12.0028L57.15 2.62378C57.0582 1.96546 56.4952 1.47799 55.828 1.47799H49.4349C49.0805 1.47799 48.7385 1.61549 48.4883 1.86548C48.2381 2.11547 48.1005 2.45714 48.1005 2.81129V11.2486H32.2489V6.22796C32.2489 5.49465 31.6526 4.89882 30.9186 4.89466H12.3148C11.6351 1.79052 8.72004 -0.305222 5.55902 0.0364238C2.39384 0.382251 9.62133e-05 3.04883 9.62133e-05 6.22796C9.62133e-05 9.40709 2.39384 12.0737 5.55902 12.4195C8.72004 12.7612 11.6351 10.6654 12.3148 7.56127H29.5798V12.582C29.5798 12.9361 29.7216 13.2736 29.9719 13.5236C30.2221 13.7778 30.564 13.9153 30.9185 13.9153H48.1088V23.3775C48.1088 23.7317 48.2464 24.0692 48.4966 24.3192C48.7468 24.5692 49.0888 24.7108 49.4433 24.7108C57.7713 24.7108 65.4656 29.1483 69.6313 36.3564C73.7932 43.5646 73.7932 52.4393 69.6313 59.6476C65.4653 66.8558 57.7715 71.2932 49.4433 71.2932C48.7051 71.2932 48.1088 71.8891 48.1088 72.6265V82.0888H30.9185C30.564 82.0888 30.2262 82.2305 29.976 82.4805C29.7258 82.7305 29.584 83.068 29.584 83.4221V88.4428H12.3147C11.635 85.3387 8.72411 83.2429 5.55893 83.5888C2.39791 83.9304 0 86.597 0 89.7761C0 92.9553 2.39791 95.6219 5.55893 95.9635C8.72411 96.3052 11.635 94.2136 12.3147 91.1094H30.9185C31.273 91.1094 31.6108 90.9678 31.861 90.7178C32.1112 90.4678 32.253 90.1303 32.253 89.7761V84.7554H48.1003V93.1928C48.1003 93.547 48.242 93.8845 48.4923 94.1344C48.7425 94.3844 49.0803 94.5261 49.4347 94.5261H55.8278C56.495 94.5261 57.0579 94.0386 57.1498 93.3803L58.4759 83.993H58.4801C62.0123 83.1139 65.3903 81.7139 68.5137 79.8431L76.087 85.5346C76.6208 85.9346 77.363 85.8846 77.8343 85.4138L86.8796 76.3765C87.3509 75.9056 87.4009 75.164 87.0006 74.6307L81.2999 67.0558L81.304 67.06C83.1765 63.9392 84.5735 60.5601 85.4576 57.0311L94.8532 55.7061C95.5079 55.6103 96 55.0478 96 54.3853V41.6101C96 40.9476 95.5123 40.3856 94.8534 40.2938ZM6.23083 9.78574C4.79205 9.78574 3.49098 8.91909 2.94053 7.58995C2.39006 6.2608 2.69448 4.72751 3.71203 3.71089C4.72957 2.69008 6.26421 2.38591 7.59453 2.93591C8.92485 3.49006 9.79226 4.78589 9.79226 6.22746C9.79226 8.18987 8.19914 9.78574 6.23083 9.78574ZM6.23083 93.3337C4.79205 93.3337 3.49098 92.467 2.94053 91.1379C2.39006 89.8046 2.69448 88.2755 3.71203 87.2547C4.72957 86.238 6.26421 85.9339 7.59453 86.4839C8.92485 87.038 9.79226 88.3338 9.79226 89.7754C9.79226 91.7378 8.19914 93.3295 6.23083 93.3337ZM93.331 53.2343L84.1856 54.5259C83.6352 54.6009 83.1889 55.0134 83.068 55.5551C82.2089 59.4133 80.6867 63.0882 78.5683 66.4252C78.268 66.8961 78.2931 67.5002 78.6267 67.9419L84.1773 75.3126L76.7709 82.7124L69.3937 77.1667C68.9516 76.8334 68.3469 76.8084 67.8757 77.1042C64.5353 79.225 60.853 80.7459 56.9959 81.6084C56.4537 81.7292 56.0409 82.1708 55.9658 82.7209L54.6731 91.8581H50.7698V73.9215C59.7191 73.459 67.801 68.4174 72.1461 60.5885C76.4956 52.7553 76.4956 43.2385 72.1461 35.4061C67.8007 27.5772 59.7183 22.536 50.7698 22.0731V4.14389H54.6731L55.9658 13.2812V13.277C56.0409 13.827 56.4537 14.2728 56.9959 14.3937C60.8576 15.252 64.5399 16.777 67.8842 18.8936C68.3513 19.1894 68.956 19.1686 69.4022 18.8311L76.7794 13.2854L84.1858 20.6853L78.6352 28.056H78.6311C78.2974 28.4976 78.2724 29.1018 78.5727 29.5726C80.6912 32.9101 82.2134 36.5891 83.0723 40.4513C83.1933 40.993 83.6395 41.4013 84.19 41.4805L93.3312 42.7762L93.331 53.2343ZM49.435 54.1343C51.9163 54.1343 54.1558 52.6386 55.1066 50.3469C56.0574 48.0553 55.5319 45.4178 53.7763 43.6637C52.0206 41.9096 49.3808 41.3846 47.083 42.3346C44.7894 43.2846 43.2964 45.522 43.2964 48.0011C43.3006 51.3886 46.0446 54.1302 49.435 54.1343ZM49.435 44.5345C50.8362 44.5345 52.104 45.3804 52.6378 46.6761C53.1758 47.9719 52.8797 49.4594 51.8871 50.4511C50.8946 51.4428 49.4017 51.7385 48.1047 51.2052C46.8119 50.6678 45.9653 49.4053 45.9653 48.0012C45.9653 46.0887 47.5208 44.5387 49.435 44.5345Z" fill="black"/>
</g>
<defs>
<clipPath id="clip0_303_325">
<rect width="96" height="96" fill="white"/>
</clipPath>
</defs>
</svg>
