<svg width="59" height="96" viewBox="0 0 59 96" fill="none" xmlns="http://www.w3.org/2000/svg">
<g clip-path="url(#clip0_221_327)">
<path d="M49.6525 0H9.34745C4.18784 0 0 3.9094 0 8.7094V87.2906C0 92.0906 4.18784 96 9.34745 96H49.6525C54.8122 96 59 92.0906 59 87.2906V8.7094C59 3.9094 54.8122 0 49.6641 0H49.6525ZM55.5294 87.2906C55.5294 90.1822 52.8918 92.5301 49.6525 92.5301H9.34745C6.10824 92.5301 3.47059 90.1822 3.47059 87.2906V8.7094C3.47059 5.81783 6.10824 3.46988 9.34745 3.46988H49.6525C52.8918 3.46988 55.5294 5.81783 55.5294 8.7094V87.2906ZM38.1765 87.3253C38.1765 88.2853 37.4014 89.0602 36.4412 89.0602H22.5588C21.5986 89.0602 20.8235 88.2853 20.8235 87.3253C20.8235 86.3653 21.5986 85.5904 22.5588 85.5904H36.4412C37.4014 85.5904 38.1765 86.3653 38.1765 87.3253ZM27.7647 8.6747C27.7647 7.7147 28.5398 6.93976 29.5 6.93976H36.4412C37.4014 6.93976 38.1765 7.7147 38.1765 8.6747C38.1765 9.6347 37.4014 10.4096 36.4412 10.4096H29.5C28.5398 10.4096 27.7647 9.6347 27.7647 8.6747ZM20.8467 8.6747C20.8467 7.7147 21.6102 6.93976 22.5588 6.93976H22.5935C23.5537 6.93976 24.3288 7.7147 24.3288 8.6747C24.3288 9.6347 23.5537 10.4096 22.5935 10.4096C21.6333 10.4096 20.8467 9.6347 20.8467 8.6747ZM14.588 31.2289H21.2747C24.2131 31.2289 26.6078 28.8347 26.6078 25.8969V19.2116C26.6078 16.2737 24.2131 13.8795 21.2747 13.8795H14.588C11.6496 13.8795 9.2549 16.2737 9.2549 19.2116V25.8969C9.2549 28.8347 11.6496 31.2289 14.588 31.2289ZM12.7255 19.2116C12.7255 18.1822 13.5584 17.3494 14.588 17.3494H21.2747C22.3043 17.3494 23.1373 18.1822 23.1373 19.2116V25.8969C23.1373 26.9263 22.3043 27.759 21.2747 27.759H14.588C13.5584 27.759 12.7255 26.9263 12.7255 25.8969V19.2116ZM44.412 13.8795H37.7253C34.7869 13.8795 32.3922 16.2737 32.3922 19.2116V25.8969C32.3922 28.8347 34.7869 31.2289 37.7253 31.2289H44.412C47.3504 31.2289 49.7451 28.8347 49.7451 25.8969V19.2116C49.7451 16.2737 47.3504 13.8795 44.412 13.8795ZM46.2745 25.8969C46.2745 26.9263 45.4416 27.759 44.412 27.759H37.7253C36.6957 27.759 35.8627 26.9263 35.8627 25.8969V19.2116C35.8627 18.1822 36.6957 17.3494 37.7253 17.3494H44.412C45.4416 17.3494 46.2745 18.1822 46.2745 19.2116V25.8969ZM14.588 54.3614H21.2747C24.2131 54.3614 26.6078 51.9672 26.6078 49.0294V42.3441C26.6078 39.4063 24.2131 37.012 21.2747 37.012H14.588C11.6496 37.012 9.2549 39.4063 9.2549 42.3441V49.0294C9.2549 51.9672 11.6496 54.3614 14.588 54.3614ZM12.7255 42.3441C12.7255 41.3147 13.5584 40.4819 14.588 40.4819H21.2747C22.3043 40.4819 23.1373 41.3147 23.1373 42.3441V49.0294C23.1373 50.0588 22.3043 50.8916 21.2747 50.8916H14.588C13.5584 50.8916 12.7255 50.0588 12.7255 49.0294V42.3441ZM44.412 37.012H37.7253C34.7869 37.012 32.3922 39.4063 32.3922 42.3441V49.0294C32.3922 51.9672 34.7869 54.3614 37.7253 54.3614H44.412C47.3504 54.3614 49.7451 51.9672 49.7451 49.0294V42.3441C49.7451 39.4063 47.3504 37.012 44.412 37.012ZM46.2745 49.0294C46.2745 50.0588 45.4416 50.8916 44.412 50.8916H37.7253C36.6957 50.8916 35.8627 50.0588 35.8627 49.0294V42.3441C35.8627 41.3147 36.6957 40.4819 37.7253 40.4819H44.412C45.4416 40.4819 46.2745 41.3147 46.2745 42.3441V49.0294ZM26.6078 72.1619V65.4766C26.6078 62.5388 24.2131 60.1446 21.2747 60.1446H14.588C11.6496 60.1446 9.2549 62.5388 9.2549 65.4766V72.1619C9.2549 75.0998 11.6496 77.494 14.588 77.494H21.2747C24.2131 77.494 26.6078 75.0998 26.6078 72.1619ZM12.7255 72.1619V65.4766C12.7255 64.4472 13.5584 63.6145 14.588 63.6145H21.2747C22.3043 63.6145 23.1373 64.4472 23.1373 65.4766V72.1619C23.1373 73.1913 22.3043 74.0241 21.2747 74.0241H14.588C13.5584 74.0241 12.7255 73.1913 12.7255 72.1619Z" fill="black"/>
<path d="M43.1048 73.9428C41.9595 74.4749 40.687 74.498 40.687 74.498C40.687 74.498 39.0674 74.5327 37.7023 73.7925" stroke="black" stroke-miterlimit="10"/>
<path d="M43.0817 75.7708C41.948 76.2913 40.6754 76.3144 40.6754 76.3144C40.6754 76.3144 39.0674 76.3491 37.7139 75.6089" stroke="black" stroke-miterlimit="10"/>
<path d="M42.2834 77.5402C41.4851 77.9103 40.5828 77.9219 40.5828 77.9219C40.5828 77.9219 39.4491 77.945 38.5004 77.4246" stroke="black" stroke-miterlimit="10"/>
<path d="M36.9386 72.8904C36.9386 72.8904 36.5453 72.6013 36.1983 72.2312C35.8859 71.8957 34.4282 70.0914 34.3704 68.0673C34.2894 65.4071 36.6032 61.9488 40.3051 61.8678C43.66 61.7984 46.4249 64.4471 46.5059 67.8013C46.5637 70.2302 44.7822 72.1733 44.4351 72.4856C44.1228 72.7632 43.7873 72.9945 43.7873 72.9945" stroke="black" stroke-miterlimit="10"/>
</g>
<defs>
<clipPath id="clip0_221_327">
<rect width="59" height="96" fill="white"/>
</clipPath>
</defs>
</svg>
