<svg width="51" height="83" viewBox="0 0 51 83" fill="none" xmlns="http://www.w3.org/2000/svg">
<g clip-path="url(#clip0_129_2066)">
<path d="M42.92 0H8.08C3.62 0 0 3.38 0 7.53V75.47C0 79.62 3.62 83 8.08 83H42.92C47.38 83 51 79.62 51 75.47V7.53C51 3.38 47.38 0 42.93 0H42.92ZM48 75.47C48 77.97 45.72 80 42.92 80H8.08C5.28 80 3 77.97 3 75.47V7.53C3 5.03 5.28 3 8.08 3H42.92C45.72 3 48 5.03 48 7.53V75.47ZM33 75.5C33 76.33 32.33 77 31.5 77H19.5C18.67 77 18 76.33 18 75.5C18 74.67 18.67 74 19.5 74H31.5C32.33 74 33 74.67 33 75.5ZM24 7.5C24 6.67 24.67 6 25.5 6H31.5C32.33 6 33 6.67 33 7.5C33 8.33 32.33 9 31.5 9H25.5C24.67 9 24 8.33 24 7.5ZM18.02 7.5C18.02 6.67 18.68 6 19.5 6H19.53C20.36 6 21.03 6.67 21.03 7.5C21.03 8.33 20.36 9 19.53 9C18.7 9 18.02 8.33 18.02 7.5ZM12.61 27H18.39C20.93 27 23 24.93 23 22.39V16.61C23 14.07 20.93 12 18.39 12H12.61C10.07 12 8 14.07 8 16.61V22.39C8 24.93 10.07 27 12.61 27ZM11 16.61C11 15.72 11.72 15 12.61 15H18.39C19.28 15 20 15.72 20 16.61V22.39C20 23.28 19.28 24 18.39 24H12.61C11.72 24 11 23.28 11 22.39V16.61ZM38.39 12H32.61C30.07 12 28 14.07 28 16.61V22.39C28 24.93 30.07 27 32.61 27H38.39C40.93 27 43 24.93 43 22.39V16.61C43 14.07 40.93 12 38.39 12ZM40 22.39C40 23.28 39.28 24 38.39 24H32.61C31.72 24 31 23.28 31 22.39V16.61C31 15.72 31.72 15 32.61 15H38.39C39.28 15 40 15.72 40 16.61V22.39ZM12.61 47H18.39C20.93 47 23 44.93 23 42.39V36.61C23 34.07 20.93 32 18.39 32H12.61C10.07 32 8 34.07 8 36.61V42.39C8 44.93 10.07 47 12.61 47ZM11 36.61C11 35.72 11.72 35 12.61 35H18.39C19.28 35 20 35.72 20 36.61V42.39C20 43.28 19.28 44 18.39 44H12.61C11.72 44 11 43.28 11 42.39V36.61ZM38.39 32H32.61C30.07 32 28 34.07 28 36.61V42.39C28 44.93 30.07 47 32.61 47H38.39C40.93 47 43 44.93 43 42.39V36.61C43 34.07 40.93 32 38.39 32ZM40 42.39C40 43.28 39.28 44 38.39 44H32.61C31.72 44 31 43.28 31 42.39V36.61C31 35.72 31.72 35 32.61 35H38.39C39.28 35 40 35.72 40 36.61V42.39ZM23 62.39V56.61C23 54.07 20.93 52 18.39 52H12.61C10.07 52 8 54.07 8 56.61V62.39C8 64.93 10.07 67 12.61 67H18.39C20.93 67 23 64.93 23 62.39ZM11 62.39V56.61C11 55.72 11.72 55 12.61 55H18.39C19.28 55 20 55.72 20 56.61V62.39C20 63.28 19.28 64 18.39 64H12.61C11.72 64 11 63.28 11 62.39Z" fill="#6C0280"/>
<path d="M37.2601 63.9298C36.2701 64.3898 35.1701 64.4098 35.1701 64.4098C35.1701 64.4098 33.7701 64.4398 32.5901 63.7998" stroke="#6C0280" stroke-miterlimit="10"/>
<path d="M37.2401 65.5101C36.2601 65.9601 35.1601 65.9801 35.1601 65.9801C35.1601 65.9801 33.7701 66.0101 32.6001 65.3701" stroke="#6C0280" stroke-miterlimit="10"/>
<path d="M36.55 67.0399C35.86 67.3599 35.08 67.3699 35.08 67.3699C35.08 67.3699 34.1 67.3899 33.28 66.9399" stroke="#6C0280" stroke-miterlimit="10"/>
<path d="M31.93 63.0199C31.93 63.0199 31.59 62.7699 31.29 62.4499C31.02 62.1599 29.76 60.5999 29.71 58.8499C29.64 56.5499 31.64 53.5599 34.84 53.4899C37.74 53.4299 40.13 55.7199 40.2 58.6199C40.25 60.7199 38.71 62.3999 38.41 62.6699C38.14 62.9099 37.85 63.1099 37.85 63.1099" stroke="#6C0280" stroke-miterlimit="10"/>
</g>
<defs>
<clipPath id="clip0_129_2066">
<rect width="51" height="83" fill="white"/>
</clipPath>
</defs>
</svg>
