<svg width="59" height="59" viewBox="0 0 59 59" fill="none" xmlns="http://www.w3.org/2000/svg">
<g clip-path="url(#clip0_129_2061)">
<path d="M23.0454 3.6875C12.3723 3.6875 3.6875 12.3723 3.6875 23.0454C3.6875 33.7185 12.3723 42.4033 23.0454 42.4033C33.7185 42.4033 42.4033 33.7185 42.4033 23.0454C42.4033 12.3723 33.7185 3.6875 23.0454 3.6875ZM23.0454 40.5625C13.3871 40.5625 5.5283 32.7037 5.5283 23.0454C5.5283 13.3871 13.3871 5.5283 23.0454 5.5283C32.7037 5.5283 40.5625 13.3871 40.5625 23.0454C40.5625 32.7037 32.7037 40.5625 23.0454 40.5625Z" fill="#6C0280"/>
<path d="M58.7286 52.8168L42.0198 36.108C44.5863 32.391 46.0908 27.8893 46.0908 23.0454C46.0908 10.3368 35.754 0 23.0454 0C10.3368 0 0 10.3368 0 23.0454C0 35.754 10.3368 46.0908 23.0454 46.0908C27.8893 46.0908 32.391 44.5863 36.108 42.0198L52.8168 58.7286C52.9879 58.8997 53.2239 59 53.4717 59C53.7195 59 53.9496 58.9056 54.1266 58.7286L58.7345 54.1207C59.0944 53.7608 59.0944 53.1767 58.7345 52.8168H58.7286ZM1.8408 23.0454C1.8408 11.3575 11.3516 1.8408 23.0454 1.8408C34.7392 1.8408 44.25 11.3516 44.25 23.0454C44.25 34.7392 34.7392 44.25 23.0454 44.25C11.3516 44.25 1.8408 34.7392 1.8408 23.0454ZM40.9047 37.6007L43.8665 40.5625L40.5625 43.8665L37.6007 40.9047C38.8102 39.9194 39.9194 38.8102 40.9047 37.6007ZM53.4658 56.7757L41.8664 45.1763L45.1704 41.8723L56.7698 53.4717L53.4658 56.7757Z" fill="#6C0280"/>
<path d="M38.4326 20.0718C38.3618 19.6824 38.0373 19.3815 37.642 19.3284L35.3115 19.0393C35.105 18.408 34.8513 17.7885 34.5504 17.1985L35.99 15.3459C36.2319 15.0273 36.2496 14.5966 36.0254 14.2603C35.4649 13.4343 34.8277 12.6614 34.1197 11.9593C33.4117 11.2572 32.6388 10.6141 31.8187 10.0595C31.4883 9.83534 31.0517 9.84714 30.7331 10.0949L28.8805 11.5345C28.2905 11.2336 27.671 10.974 27.0397 10.7734L26.7506 8.44294C26.6975 8.04764 26.4025 7.72904 26.0072 7.65234C24.0543 7.27474 22.0129 7.27474 20.06 7.65234C19.6706 7.72314 19.3697 8.04764 19.3166 8.44294L19.0275 10.7734C18.3962 10.9799 17.7767 11.2336 17.1867 11.5345L15.3341 10.0949C15.0214 9.85304 14.5848 9.83534 14.2485 10.0595C13.4225 10.62 12.6496 11.2572 11.9475 11.9652C11.2395 12.6732 10.6023 13.4461 10.0477 14.2662C9.8235 14.5966 9.8353 15.0332 10.0831 15.3518L11.5227 17.2044C11.2218 17.7944 10.9622 18.4139 10.7616 19.0452L8.4311 19.3343C8.0358 19.3874 7.7172 19.6824 7.6405 20.0777C7.4517 21.0571 7.3573 22.0542 7.3573 23.0513C7.3573 24.0484 7.4517 25.0455 7.6405 26.0249C7.7113 26.4143 8.0358 26.7152 8.4311 26.7683L10.7616 27.0574C10.9681 27.6887 11.2218 28.3082 11.5227 28.8982L10.0831 30.7508C9.8412 31.0694 9.8235 31.5001 10.0477 31.8364C10.6082 32.6624 11.2454 33.4353 11.9534 34.1374C12.6614 34.8454 13.4343 35.4826 14.2544 36.0372C14.5848 36.2614 15.0214 36.2496 15.34 36.0018L17.1926 34.5622C17.7826 34.8631 18.4021 35.1227 19.0334 35.3233L19.3225 37.6538C19.3756 38.0491 19.6706 38.3677 20.0659 38.4444C21.0453 38.6332 22.0424 38.7276 23.0395 38.7276C24.0366 38.7276 25.0337 38.6332 26.0131 38.4444C26.4025 38.3736 26.7034 38.0491 26.7565 37.6538L27.0456 35.3233C27.6769 35.1168 28.2964 34.8631 28.8864 34.5622L30.739 36.0018C31.0576 36.2437 31.4883 36.2614 31.8246 36.0372C32.6506 35.4767 33.4235 34.8395 34.1256 34.1315C34.8336 33.4235 35.4708 32.6506 36.0254 31.8305C36.2496 31.5001 36.2378 31.0635 35.99 30.7449L34.5504 28.8923C34.8513 28.3023 35.1109 27.6828 35.3115 27.0515L37.642 26.7624C38.0373 26.7093 38.3559 26.4143 38.4326 26.019C38.6214 25.0396 38.7158 24.0425 38.7158 23.0454C38.7158 22.0483 38.6214 21.0512 38.4326 20.0718ZM36.7334 25.016L34.4914 25.2992C34.1197 25.3464 33.8129 25.6119 33.7185 25.9718C33.4766 26.8686 33.1167 27.73 32.6565 28.5324C32.4736 28.8569 32.4972 29.2581 32.7273 29.5531L34.1138 31.3349C33.7185 31.86 33.2819 32.3615 32.8158 32.8276C32.3497 33.2937 31.8541 33.7244 31.3231 34.1197L29.5413 32.7332C29.2463 32.5031 28.8451 32.4736 28.5206 32.6624C27.7182 33.1226 26.8568 33.4766 25.96 33.7244C25.6001 33.8188 25.3346 34.1315 25.2874 34.4973L25.0042 36.7393C23.7003 36.9281 22.3728 36.9281 21.063 36.7393L20.7798 34.4973C20.7326 34.1256 20.4671 33.8188 20.1072 33.7244C19.2104 33.4825 18.349 33.1226 17.5466 32.6624C17.2221 32.4795 16.8209 32.5031 16.5259 32.7332L14.7441 34.1197C14.219 33.7244 13.7175 33.2878 13.2514 32.8217C12.7853 32.3556 12.3546 31.86 11.9593 31.329L13.3458 29.5472C13.5759 29.2522 13.6054 28.8451 13.4166 28.5265C12.9564 27.7241 12.6024 26.8627 12.3546 25.9659C12.2602 25.606 11.9475 25.3405 11.5817 25.2933L9.3397 25.0101C9.2453 24.3552 9.1981 23.7003 9.1981 23.0395C9.1981 22.3787 9.2453 21.7238 9.3397 21.0689L11.5817 20.7857C11.9534 20.7385 12.2602 20.473 12.3546 20.1131C12.5965 19.2163 12.9564 18.3549 13.4166 17.5525C13.5995 17.228 13.5759 16.8268 13.3458 16.5318L11.9593 14.75C12.3546 14.2249 12.7912 13.7234 13.2573 13.2573C13.7234 12.7912 14.219 12.3605 14.75 11.9652L16.5318 13.3517C16.8268 13.5818 17.228 13.6113 17.5525 13.4225C18.3549 12.9623 19.2163 12.6083 20.1131 12.3605C20.473 12.2661 20.7385 11.9534 20.7857 11.5876L21.0689 9.34564C22.3728 9.15684 23.7003 9.15684 25.0101 9.34564L25.2933 11.5876C25.3405 11.9593 25.606 12.2661 25.9659 12.3605C26.8627 12.6024 27.7241 12.9623 28.5265 13.4225C28.851 13.6054 29.2522 13.5818 29.5472 13.3517L31.329 11.9652C31.8541 12.3605 32.3556 12.7971 32.8217 13.2632C33.2878 13.7293 33.7185 14.2249 34.1138 14.7559L32.7273 16.5377C32.4972 16.8327 32.4677 17.2398 32.6565 17.5584C33.1167 18.3608 33.4707 19.2222 33.7185 20.119C33.8129 20.4789 34.1256 20.7444 34.4914 20.7916L36.7334 21.0748C36.8278 21.7297 36.875 22.3846 36.875 23.0454C36.875 23.7062 36.8278 24.3611 36.7334 25.016Z" fill="#6C0280"/>
<path d="M23.0454 15.6704C18.9803 15.6704 15.6704 18.9803 15.6704 23.0454C15.6704 27.1105 18.9803 30.4204 23.0454 30.4204C27.1105 30.4204 30.4204 27.1105 30.4204 23.0454C30.4204 18.9803 27.1105 15.6704 23.0454 15.6704ZM23.0454 28.5796C19.9951 28.5796 17.5112 26.1016 17.5112 23.0454C17.5112 19.9892 19.9892 17.5112 23.0454 17.5112C26.1016 17.5112 28.5796 19.9892 28.5796 23.0454C28.5796 26.1016 26.1016 28.5796 23.0454 28.5796Z" fill="#6C0280"/>
</g>
<defs>
<clipPath id="clip0_129_2061">
<rect width="59" height="59" fill="white"/>
</clipPath>
</defs>
</svg>
