<svg width="96" height="96" viewBox="0 0 96 96" fill="none" xmlns="http://www.w3.org/2000/svg">
<g clip-path="url(#clip0_221_326)">
<path d="M37.4976 6C20.1312 6 6 20.1312 6 37.4976C6 54.864 20.1312 68.9952 37.4976 68.9952C54.864 68.9952 68.9952 54.864 68.9952 37.4976C68.9952 20.1312 54.864 6 37.4976 6ZM37.4976 66C21.7824 66 8.9952 53.2128 8.9952 37.4976C8.9952 21.7824 21.7824 8.9952 37.4976 8.9952C53.2128 8.9952 66 21.7824 66 37.4976C66 53.2128 53.2128 66 37.4976 66Z" fill="#231F20"/>
<path d="M95.5584 85.9392L68.3712 58.752C72.5472 52.704 74.9952 45.3792 74.9952 37.4976C74.9952 16.8192 58.176 0 37.4976 0C16.8192 0 0 16.8192 0 37.4976C0 58.176 16.8192 74.9952 37.4976 74.9952C45.3792 74.9952 52.704 72.5472 58.752 68.3712L85.9392 95.5584C86.2176 95.8368 86.6016 96 87.0048 96C87.408 96 87.7824 95.8464 88.0704 95.5584L95.568 88.0608C96.1536 87.4752 96.1536 86.5248 95.568 85.9392H95.5584ZM2.9952 37.4976C2.9952 18.48 18.4704 2.9952 37.4976 2.9952C56.5248 2.9952 72 18.4704 72 37.4976C72 56.5248 56.5248 72 37.4976 72C18.4704 72 2.9952 56.5248 2.9952 37.4976ZM66.5568 61.1808L71.376 66L66 71.376L61.1808 66.5568C63.1488 64.9536 64.9536 63.1488 66.5568 61.1808ZM86.9952 92.3808L68.1216 73.5072L73.4976 68.1312L92.3712 87.0048L86.9952 92.3808Z" fill="#231F20"/>
<path d="M62.5344 32.659C62.4192 32.0254 61.8912 31.5358 61.248 31.4494L57.456 30.979C57.12 29.9518 56.7072 28.9438 56.2176 27.9838L58.56 24.9694C58.9536 24.451 58.9824 23.7502 58.6176 23.203C57.7056 21.859 56.6688 20.6014 55.5168 19.459C54.3648 18.3166 53.1072 17.2702 51.7728 16.3678C51.2352 16.003 50.5248 16.0222 50.0064 16.4254L46.992 18.7678C46.032 18.2782 45.024 17.8558 43.9968 17.5294L43.5264 13.7374C43.44 13.0942 42.96 12.5758 42.3168 12.451C39.1392 11.8366 35.8176 11.8366 32.64 12.451C32.0064 12.5662 31.5168 13.0942 31.4304 13.7374L30.96 17.5294C29.9328 17.8654 28.9248 18.2782 27.9648 18.7678L24.9504 16.4254C24.4416 16.0318 23.7312 16.003 23.184 16.3678C21.84 17.2798 20.5824 18.3166 19.44 19.4686C18.288 20.6206 17.2512 21.8782 16.3488 23.2126C15.984 23.7502 16.0032 24.4606 16.4064 24.979L18.7488 27.9934C18.2592 28.9534 17.8368 29.9614 17.5104 30.9886L13.7184 31.459C13.0752 31.5454 12.5568 32.0254 12.432 32.6686C12.1248 34.2622 11.9712 35.8846 11.9712 37.507C11.9712 39.1294 12.1248 40.7518 12.432 42.3454C12.5472 42.979 13.0752 43.4686 13.7184 43.555L17.5104 44.0254C17.8464 45.0526 18.2592 46.0606 18.7488 47.0206L16.4064 50.035C16.0128 50.5534 15.984 51.2542 16.3488 51.8014C17.2608 53.1454 18.2976 54.403 19.4496 55.5454C20.6016 56.6974 21.8592 57.7342 23.1936 58.6366C23.7312 59.0014 24.4416 58.9822 24.96 58.579L27.9744 56.2366C28.9344 56.7262 29.9424 57.1486 30.9696 57.475L31.44 61.267C31.5264 61.9102 32.0064 62.4286 32.6496 62.5534C34.2432 62.8606 35.8656 63.0142 37.488 63.0142C39.1104 63.0142 40.7328 62.8606 42.3264 62.5534C42.96 62.4382 43.4496 61.9102 43.536 61.267L44.0064 57.475C45.0336 57.139 46.0416 56.7262 47.0016 56.2366L50.016 58.579C50.5344 58.9726 51.2352 59.0014 51.7824 58.6366C53.1264 57.7246 54.384 56.6878 55.5264 55.5358C56.6784 54.3838 57.7152 53.1262 58.6176 51.7918C58.9824 51.2542 58.9632 50.5438 58.56 50.0254L56.2176 47.011C56.7072 46.051 57.1296 45.043 57.456 44.0158L61.248 43.5454C61.8912 43.459 62.4096 42.979 62.5344 42.3358C62.8416 40.7422 62.9952 39.1198 62.9952 37.4974C62.9952 35.875 62.8416 34.2526 62.5344 32.659ZM59.7696 40.7038L56.1216 41.1646C55.5168 41.2414 55.0176 41.6734 54.864 42.259C54.4704 43.7182 53.8848 45.1198 53.136 46.4254C52.8384 46.9534 52.8768 47.6062 53.2512 48.0862L55.5072 50.9854C54.864 51.8398 54.1536 52.6558 53.3952 53.4142C52.6368 54.1726 51.8304 54.8734 50.9664 55.5166L48.0672 53.2606C47.5872 52.8862 46.9344 52.8382 46.4064 53.1454C45.1008 53.8942 43.6992 54.4702 42.24 54.8734C41.6544 55.027 41.2224 55.5358 41.1456 56.131L40.6848 59.779C38.5632 60.0862 36.4032 60.0862 34.272 59.779L33.8112 56.131C33.7344 55.5262 33.3024 55.027 32.7168 54.8734C31.2576 54.4798 29.856 53.8942 28.5504 53.1454C28.0224 52.8478 27.3696 52.8862 26.8896 53.2606L23.9904 55.5166C23.136 54.8734 22.32 54.163 21.5616 53.4046C20.8032 52.6462 20.1024 51.8398 19.4592 50.9758L21.7152 48.0766C22.0896 47.5966 22.1376 46.9342 21.8304 46.4158C21.0816 45.1102 20.5056 43.7086 20.1024 42.2494C19.9488 41.6638 19.44 41.2318 18.8448 41.155L15.1968 40.6942C15.0432 39.6286 14.9664 38.563 14.9664 37.4878C14.9664 36.4126 15.0432 35.347 15.1968 34.2814L18.8448 33.8206C19.4496 33.7438 19.9488 33.3118 20.1024 32.7262C20.496 31.267 21.0816 29.8654 21.8304 28.5598C22.128 28.0318 22.0896 27.379 21.7152 26.899L19.4592 23.9998C20.1024 23.1454 20.8128 22.3294 21.5712 21.571C22.3296 20.8126 23.136 20.1118 24 19.4686L26.8992 21.7246C27.3792 22.099 28.032 22.147 28.56 21.8398C29.8656 21.091 31.2672 20.515 32.7264 20.1118C33.312 19.9582 33.744 19.4494 33.8208 18.8542L34.2816 15.2062C36.4032 14.899 38.5632 14.899 40.6944 15.2062L41.1552 18.8542C41.232 19.459 41.664 19.9582 42.2496 20.1118C43.7088 20.5054 45.1104 21.091 46.416 21.8398C46.944 22.1374 47.5968 22.099 48.0768 21.7246L50.976 19.4686C51.8304 20.1118 52.6464 20.8222 53.4048 21.5806C54.1632 22.339 54.864 23.1454 55.5072 24.0094L53.2512 26.9086C52.8768 27.3886 52.8288 28.051 53.136 28.5694C53.8848 29.875 54.4608 31.2766 54.864 32.7358C55.0176 33.3214 55.5264 33.7534 56.1216 33.8302L59.7696 34.291C59.9232 35.3566 60 36.4222 60 37.4974C60 38.5726 59.9232 39.6382 59.7696 40.7038Z" fill="#231F20"/>
<path d="M37.4976 25.4976C30.8832 25.4976 25.4976 30.8832 25.4976 37.4976C25.4976 44.112 30.8832 49.4976 37.4976 49.4976C44.112 49.4976 49.4976 44.112 49.4976 37.4976C49.4976 30.8832 44.112 25.4976 37.4976 25.4976ZM37.4976 46.5024C32.5344 46.5024 28.4928 42.4704 28.4928 37.4976C28.4928 32.5248 32.5248 28.4928 37.4976 28.4928C42.4704 28.4928 46.5024 32.5248 46.5024 37.4976C46.5024 42.4704 42.4704 46.5024 37.4976 46.5024Z" fill="#231F20"/>
</g>
<defs>
<clipPath id="clip0_221_326">
<rect width="96" height="96" fill="white"/>
</clipPath>
</defs>
</svg>
