<svg width="117" height="96" viewBox="0 0 117 96" fill="none" xmlns="http://www.w3.org/2000/svg">
<path fill-rule="evenodd" clip-rule="evenodd" d="M20.5592 88.217C21.7132 88.217 22.6482 89.1519 22.6482 90.306C22.6482 91.4601 21.7132 92.395 20.5592 92.395C19.4051 92.395 18.4701 91.4601 18.4701 90.306C18.4701 89.1519 19.4051 88.217 20.5592 88.217ZM82.0793 41.427C81.4219 41.427 80.8863 40.8963 80.8863 40.234C80.8863 39.5767 81.417 39.041 82.0793 39.041H91.2192C91.8765 39.041 92.4122 39.5767 92.4122 40.234C92.4122 40.8914 91.8814 41.427 91.2192 41.427H82.0793ZM61.9533 56.9457C61.2959 56.9457 60.7603 56.4149 60.7603 55.7526C60.7603 55.0953 61.2911 54.5596 61.9533 54.5596H91.2192C91.8765 54.5596 92.4122 55.0953 92.4122 55.7526C92.4122 56.41 91.8814 56.9457 91.2192 56.9457H61.9533ZM63.0343 51.7695C62.377 51.7695 61.8413 51.2339 61.8413 50.5765C61.8413 49.9191 62.377 49.3835 63.0343 49.3835H80.1847C80.8421 49.3835 81.3777 49.9142 81.3777 50.5765C81.3777 51.2339 80.8421 51.7695 80.1847 51.7695H63.0343ZM74.0734 46.5982C73.416 46.5982 72.8804 46.0626 72.8804 45.4052C72.8804 44.7478 73.416 44.2122 74.0734 44.2122H91.2238C91.8811 44.2122 92.4168 44.7478 92.4168 45.4052C92.4168 46.0626 91.886 46.5982 91.2238 46.5982H74.0734ZM61.9533 41.4269C61.2959 41.4269 60.7603 40.8961 60.7603 40.2339C60.7603 39.5765 61.2911 39.0409 61.9533 39.0409H77.8621C78.5195 39.0409 79.0551 39.5765 79.0551 40.2339C79.0551 40.8913 78.5195 41.4269 77.8621 41.4269H61.9533ZM0.00498624 37.7367V89.7525C0.00498624 91.4812 0.745141 93.0491 1.93331 94.1837C3.10685 95.3037 4.72352 96 6.49603 96H34.6312C36.4037 96 38.0154 95.3037 39.194 94.1837C40.3821 93.0492 41.1223 91.4812 41.1223 89.7525V35.1862C41.1223 33.4576 40.3821 31.8896 39.194 30.755C38.0204 29.635 36.4037 28.9387 34.6312 28.9387H6.49104C4.71854 28.9387 3.10684 29.635 1.92833 30.755C0.740192 31.8896 0 33.4576 0 35.1862V37.7329L0.00498624 37.7367ZM2.38619 36.5437V35.1851C2.38619 34.1333 2.83905 33.174 3.56947 32.4728C4.3145 31.7619 5.3517 31.3188 6.49119 31.3188H34.6264C35.7658 31.3188 36.803 31.7619 37.5481 32.4728C38.2785 33.1692 38.7314 34.1284 38.7314 35.1851V36.5437H2.38619ZM38.7313 86.9916H2.38619V89.7525C2.38619 90.8043 2.83905 91.7636 3.56947 92.4648C4.3145 93.1757 5.3517 93.6189 6.49119 93.6189H34.6264C35.7658 93.6189 36.803 93.1757 37.5481 92.4648C38.2785 91.7685 38.7314 90.8092 38.7314 89.7525L38.7313 86.9916ZM61.3941 66.1264C62.3631 66.1264 63.2445 66.5208 63.8775 67.1538C64.5154 67.7917 64.905 68.6682 64.905 69.6373C64.905 70.6063 64.5105 71.4877 63.8775 72.1207C63.2396 72.7586 62.3632 73.1482 61.3941 73.1482C60.425 73.1482 59.5437 72.7537 58.9058 72.1207C58.2679 71.4828 57.8783 70.6064 57.8783 69.6373C57.8783 68.6683 58.2728 67.7869 58.9058 67.149C59.5486 66.516 60.4251 66.1264 61.3941 66.1264ZM62.1975 68.8387C61.993 68.6342 61.7106 68.5076 61.3941 68.5076C61.0776 68.5076 60.7952 68.6342 60.5906 68.8387C60.3861 69.0432 60.2595 69.3256 60.2595 69.6421C60.2595 69.9538 60.3861 70.2411 60.5906 70.4456C60.7952 70.6501 61.0776 70.7767 61.3941 70.7767C61.7057 70.7767 61.9882 70.6501 62.1975 70.4456C62.4021 70.2411 62.5287 69.9587 62.5287 69.6421C62.5287 69.3256 62.4021 69.0432 62.1975 68.8387ZM44.2095 84.4944H85.5708C86.4035 84.4944 87.1582 84.8353 87.7085 85.3855L87.762 85.4391C88.2782 85.9796 88.5947 86.7149 88.5947 87.5233V88.0735H44.2104C43.553 88.0735 43.0174 88.6092 43.0174 89.2665C43.0174 89.9239 43.553 90.4595 44.2104 90.4595H89.7927C90.45 90.4595 90.9857 89.9288 90.9857 89.2665V87.5233C90.9857 86.077 90.4062 84.7525 89.4663 83.7787C89.442 83.7544 89.4225 83.73 89.3982 83.7057C88.4194 82.7269 87.0657 82.1183 85.5757 82.1183H75.4911L75.1162 76.46H109.275C111.32 76.46 113.175 75.6273 114.519 74.2784C115.863 72.9345 116.701 71.0744 116.701 69.0341L116.696 7.42585C116.696 5.38072 115.863 3.52544 114.514 2.18151C113.17 0.837574 111.31 0 109.27 0H13.5218C11.4766 0 9.62135 0.832675 8.27742 2.18151C6.92862 3.5303 6.09591 5.38558 6.09591 7.42585V25.8415C6.09591 26.4989 6.63155 27.0345 7.28892 27.0345C7.94629 27.0345 8.48193 26.4989 8.48193 25.8415L8.47706 7.42585C8.47706 6.03804 9.04678 4.77688 9.96223 3.86625C10.8777 2.95079 12.1389 2.38108 13.5267 2.38108H109.275C110.663 2.38108 111.924 2.95081 112.835 3.86625C113.75 4.78171 114.32 6.0429 114.32 7.42585V69.0241C114.32 70.4119 113.75 71.6731 112.835 72.5837C111.919 73.4992 110.658 74.0689 109.275 74.0689H73.8497L73.84 74.0738H44.2089C43.5515 74.0738 43.0159 74.6094 43.0159 75.2668C43.0159 75.9241 43.5515 76.4598 44.2089 76.4598H47.6808L47.3059 82.1181L44.2089 82.1133C43.5515 82.1133 43.0159 82.644 43.0159 83.3063C43.0159 83.9588 43.5521 84.4944 44.2095 84.4944ZM14.1944 25.8468V8.10305H108.594V62.8215H44.2107C43.5533 62.8215 43.0177 63.3522 43.0177 64.0145C43.0177 64.6719 43.5533 65.2075 44.2107 65.2075H109.271C109.743 65.2075 110.167 65.0176 110.473 64.7059L110.469 64.7011L110.473 64.6962C110.78 64.3894 110.975 63.9609 110.975 63.4935V7.42624C110.975 6.96365 110.785 6.54 110.478 6.22835L110.473 6.22349C110.162 5.91672 109.738 5.72194 109.271 5.72194H13.5225C13.0599 5.72194 12.6363 5.91184 12.3246 6.21862L12.3198 6.22836C12.013 6.54001 11.8182 6.96364 11.8182 7.42625V25.8419C11.8182 26.4993 12.3538 27.0349 13.0112 27.0349C13.6637 27.0349 14.1944 26.5042 14.1944 25.8468ZM72.7299 76.4553L73.1048 82.1136H49.6879L50.0628 76.4553H72.7299Z" fill="black"/>
<rect x="2.49316" y="38.6438" width="36.1507" height="46.1233" fill="white"/>
<rect x="27.9247" y="11.7192" width="70.0548" height="10.2192" stroke="black"/>
<rect x="5.4863" y="41.637" width="30.1644" height="10.2192" stroke="black"/>
<rect x="81.5274" y="25.4314" width="16.4521" height="10.2192" stroke="black"/>
<rect x="21.6918" y="55.3494" width="13.9589" height="10.2192" stroke="black"/>
<rect x="59.0891" y="25.4314" width="16.4521" height="10.2192" stroke="black"/>
<rect x="5.4863" y="55.3494" width="13.9589" height="10.2192" stroke="black"/>
<rect x="5.4863" y="70.3081" width="13.9589" height="1.49315" rx="0.746575" fill="#D9D9D9" stroke="black"/>
<rect x="21.6918" y="70.3081" width="13.9589" height="1.49315" rx="0.746575" fill="#D9D9D9" stroke="black"/>
<rect x="14.2123" y="75.2944" width="21.4384" height="1.49315" rx="0.746575" fill="#D9D9D9" stroke="black"/>
<rect x="5.4863" y="80.2808" width="18.9452" height="1.49315" rx="0.746575" fill="#D9D9D9" stroke="black"/>
</svg>
