<svg width="60" height="96" viewBox="0 0 60 96" fill="none" xmlns="http://www.w3.org/2000/svg">
<path d="M59.9999 76.8018H49.1645V79.8943H59.9999V76.8018Z" fill="black"/>
<path d="M16.0114 77.29H5.17593V80.3826H16.0114V77.29Z" fill="black"/>
<path d="M47.0611 72.0859H41.3997V75.1765H47.0611V72.0859Z" fill="black"/>
<path d="M34.1223 72.0859H28.4627V75.1765H34.1223V72.0859Z" fill="black"/>
<path d="M31.5353 87.7031H23.2868V90.7957H31.5353V87.7031Z" fill="black"/>
<path d="M44.4722 77.29H33.6367V80.3826H44.4722V77.29Z" fill="black"/>
<path d="M18.3245 83.0005H8.10861V86.0911H18.3245V83.0005Z" fill="black"/>
<path d="M31.5353 92.9097H5.17593V96.0003H31.5353V92.9097Z" fill="black"/>
<path d="M21.1854 72.0859H5.17593V75.1765H21.1854V72.0859Z" fill="black"/>
<path d="M59.9999 15.1289H54.3385V18.2195H59.9999V15.1289Z" fill="black"/>
<path d="M16.0114 5.20654H5.17593V8.29713H16.0114V5.20654Z" fill="black"/>
<path d="M13.4225 10.4111H7.76294V13.5017H13.4225V10.4111Z" fill="black"/>
<path d="M47.0611 15.6177H33.6367V18.7083H47.0611V15.6177Z" fill="black"/>
<path d="M47.0611 20.8218H36.2256V23.9124H47.0611V20.8218Z" fill="black"/>
<path d="M36.7132 0H14.8364V3.09059H36.7132V0Z" fill="black"/>
<path d="M28.9483 15.6177H23.2868V18.7083H28.9483V15.6177Z" fill="black"/>
<path d="M31.5353 20.8218H25.8757V23.9124H31.5353V20.8218Z" fill="black"/>
<path d="M34.1222 10.4111H18.1128V13.5017H34.1222V10.4111Z" fill="black"/>
<path d="M18.5984 15.6177H2.58701V18.7083H18.5984V15.6177Z" fill="black"/>
<path d="M16.0114 20.8218H0V23.9124H16.0114V20.8218Z" fill="black"/>
<path d="M21.4145 57.4593L7.09868 50.2408L21.2805 43.0887L21.4145 43.0203V39.8887L3.80279 49.0139L3.67267 49.0823V51.3993L21.4145 60.5929V57.4593Z" fill="black"/>
<path d="M36.8471 34.3208H33.796L23.2324 61.933H26.2448L36.717 34.6529L36.8471 34.3208Z" fill="#9B05B7"/>
<path d="M56.3331 49.0452L38.9427 40.0723L38.5893 39.8887V43.0203L53.0139 50.2408L38.7252 57.391L38.5893 57.4593V60.5929L56.3331 51.4364V49.0452Z" fill="black"/>
</svg>
